HIERARCHY
ROOT Hips
{
	OFFSET -3.958830 18.904000 13.208200
	CHANNELS 6 Xposition Yposition Zposition Zrotation Yrotation Xrotation 
	JOINT LHipJoint
	{
		OFFSET 0.000000 0.000000 0.000000
		CHANNELS 3 Zrotation Yrotation Xrotation
		JOINT LeftUpLeg
		{
			OFFSET 1.800000 -1.400000 0.085000
			CHANNELS 3 Zrotation Yrotation Xrotation
			JOINT LeftLeg
			{
				OFFSET 2.215000 -6.000000 0.000000
				CHANNELS 3 Zrotation Yrotation Xrotation
				JOINT LeftFoot
				{
					OFFSET 2.500000 -6.900000 0.000000
					CHANNELS 3 Zrotation Yrotation Xrotation
					JOINT LeftToeBase
					{
						OFFSET 0.200000 -0.500000 1.950000
						CHANNELS 3 Zrotation Yrotation Xrotation
						End Site
						{
							OFFSET 0.000000 0.000000 0.000000
						}
					}
				}
			}
		}
	}
	JOINT RHipJoint
	{
		OFFSET 0.000000 0.000000 0.000000
		CHANNELS 3 Zrotation Yrotation Xrotation
		JOINT RightUpLeg
		{
			OFFSET -1.800000 -1.400000 0.085000
			CHANNELS 3 Zrotation Yrotation Xrotation
			JOINT RightLeg
			{
				OFFSET -2.215000 -6.000000 0.000000
				CHANNELS 3 Zrotation Yrotation Xrotation
				JOINT RightFoot
				{
					OFFSET -2.500000 -6.900000 0.000000
					CHANNELS 3 Zrotation Yrotation Xrotation
					JOINT RightToeBase
					{
						OFFSET -0.200000 -0.500000 1.950000
						CHANNELS 3 Zrotation Yrotation Xrotation
						End Site
						{
							OFFSET 0.000000 0.000000 0.000000
						}
					}
				}
			}
		}
	}
	JOINT LowerBack
	{
		OFFSET 0.000000 0.000000 0.000000
		CHANNELS 3 Zrotation Yrotation Xrotation
		JOINT Spine
		{
			OFFSET -0.087000 1.940000 -0.288900
			CHANNELS 3 Zrotation Yrotation Xrotation
			JOINT Spine1
			{
				OFFSET 0.000000 1.950000 0.060000
				CHANNELS 3 Zrotation Yrotation Xrotation
				JOINT Neck
				{
					OFFSET 0.000000 0.000000 0.000000
					CHANNELS 3 Zrotation Yrotation Xrotation
					JOINT Neck1
					{
						OFFSET 0.000000 1.600000 0.340000
						CHANNELS 3 Zrotation Yrotation Xrotation
						JOINT Head
						{
							OFFSET 0.000000 1.667000 -0.240000
							CHANNELS 3 Zrotation Yrotation Xrotation
							End Site
							{
								OFFSET 0.000000 0.000000 0.000000
							}
						}
					}
				}
				JOINT LeftShoulder
				{
					OFFSET 0.000000 0.000000 0.000000
					CHANNELS 3 Zrotation Yrotation Xrotation
					JOINT LeftArm
					{
						OFFSET 2.700000 1.550000 -0.730000
						CHANNELS 3 Zrotation Yrotation Xrotation
						JOINT LeftForeArm
						{
							OFFSET 5.450000 0.000000 0.000000
							CHANNELS 3 Zrotation Yrotation Xrotation
							JOINT LeftHand
							{
								OFFSET 3.450000 0.000000 0.000000
								CHANNELS 3 Zrotation Yrotation Xrotation
								JOINT LeftHandIndex1
								{
									OFFSET 0.750000 0.000000 0.000000
									CHANNELS 3 Zrotation Yrotation Xrotation
									End Site
									{
										OFFSET 0.000000 0.000000 0.000000
									}
								}
							}
						}
					}
				}
				JOINT RightShoulder
				{
					OFFSET 0.000000 0.000000 0.000000
					CHANNELS 3 Zrotation Yrotation Xrotation
					JOINT RightArm
					{
						OFFSET -2.700000 1.550000 -0.730000
						CHANNELS 3 Zrotation Yrotation Xrotation
						JOINT RightForeArm
						{
							OFFSET -5.450000 0.000000 0.000000
							CHANNELS 3 Zrotation Yrotation Xrotation
							JOINT RightHand
							{
								OFFSET -3.450000 0.000000 0.000000
								CHANNELS 3 Zrotation Yrotation Xrotation
								JOINT RightHandIndex1
								{
									OFFSET -0.750000 0.000000 0.000000
									CHANNELS 3 Zrotation Yrotation Xrotation
									End Site
									{
										OFFSET 0.000000 0.000000 0.000000
									}
								}
							}
						}
					}
				}
			}
		}
	}
}
MOTION
Frames: 13
Frame Time: 0.016667
-0.240650 14.504700 -3.953740 -34.606342 4.040352 33.482783 -16.131255 10.157494 8.110345 13.155732 -23.068114 -70.259139 -33.453248 30.386936 63.406784 2.494997 15.881023 -0.460272 0.616220 0.362530 0.807050 18.097089 -8.182284 1.739635 3.865976 5.581163 -21.336444 -12.855687 -2.403943 58.502830 -1.491696 -8.016856 1.538606 0.053800 -0.010170 0.304680 -2.096494 -3.948335 -9.669047 2.824460 5.764415 67.629786 5.395583 8.652312 13.612870 1.011579 5.304313 -13.699094 4.678727 -1.813017 47.044459 0.914760 4.238280 -15.163540 -3.876571 -31.324593 1.891124 10.227294 -26.268219 -6.798777 16.479911 -3.450172 -2.293340 -3.999700 2.678431 0.589360 -0.090500 0.358300 0.094150 0.682736 31.500941 11.073628 10.157696 -0.624300 -19.985416 15.711489 61.419561 5.265738 1.673646 -1.929047 0.018500 0.160590 -0.235250 -0.153020 
-0.243120 14.477630 -3.942730 -34.899065 3.483161 33.074265 -16.114527 10.240366 8.037378 12.168859 -22.941239 -68.791771 -33.692344 29.933057 62.023891 2.440137 15.571214 -0.409252 0.641490 0.393360 0.810260 18.090565 -8.263154 1.735140 3.554589 5.550016 -21.592055 -14.908931 -1.111962 58.976858 -1.530127 -8.133163 1.486059 0.066350 -0.050060 0.311000 -2.109317 -3.929387 -9.623799 2.662545 6.114038 67.372258 5.321552 8.632711 13.815981 0.968691 5.384278 -13.860704 4.739271 -1.639466 47.914664 1.642120 4.350060 -14.844840 -4.165507 -31.315362 1.960749 9.760572 -26.129747 -6.899305 16.879737 -3.721769 -2.361582 -3.965861 2.738610 0.590530 -0.111350 0.371130 0.090980 1.031391 31.400554 11.341185 10.542387 -0.620836 -19.241029 16.023122 59.386149 5.265824 1.705936 -1.923769 0.042750 0.114400 -0.252060 -0.155250 
-0.239500 14.417030 -3.916180 -35.486573 2.555925 31.992892 -16.054238 10.406790 7.871175 10.168774 -22.787352 -65.023982 -34.124518 28.375244 58.498204 2.292865 14.694407 -0.240593 0.716230 0.489670 0.841830 18.093033 -8.488930 1.716659 2.842693 5.251924 -21.820431 -18.673227 1.163609 59.612007 -1.658303 -8.375485 1.396884 0.076560 -0.138620 0.343450 -2.194923 -3.799885 -9.526693 2.803256 6.129173 67.348286 4.648007 8.385511 13.785993 0.942746 5.511912 -14.212415 4.688015 -1.225533 50.520470 3.171900 4.804360 -16.018280 -4.541248 -31.054917 2.081361 8.517949 -26.074889 -6.875558 17.362684 -3.797886 -2.432452 -3.886717 2.818657 0.622360 -0.172010 0.448570 0.098550 1.455509 30.701558 11.964627 12.204950 -0.235356 -16.858908 17.760131 53.494073 5.464117 1.812906 -1.802939 0.119610 0.043020 -0.299260 -0.146440 
-0.258230 14.337750 -3.910140 -34.956030 1.877804 31.650634 -16.035047 10.541470 7.697858 7.291103 -23.642554 -61.948819 -33.909558 27.169937 56.159999 2.214029 14.034009 -0.099000 0.738030 0.540410 0.805900 18.080700 -8.555354 1.753979 1.151094 5.328607 -24.499799 -22.598430 3.568979 62.348006 -1.840010 -9.095722 1.164560 0.073620 -0.169910 0.369800 -2.197552 -3.895840 -9.492625 1.739282 6.533720 65.924986 4.885362 7.276009 13.617527 0.549472 5.231941 -14.505345 4.072161 -0.085995 52.206978 5.155190 5.235790 -15.521150 -4.990336 -30.442643 2.483060 6.914402 -25.402743 -6.498210 17.481428 -4.297761 -2.434436 -3.835197 2.910037 0.615420 -0.194370 0.474920 0.105390 2.802000 29.744753 12.299466 13.037231 0.402261 -14.290955 17.319409 47.815365 4.695120 1.944825 -1.674862 0.177390 -0.025620 -0.311880 -0.117920 
-0.287290 14.228090 -3.911950 -35.664127 1.158830 31.215360 -15.977968 10.485711 7.520920 5.487376 -23.592047 -59.715123 -33.343531 27.112646 55.867901 2.218322 13.887541 -0.090671 0.778180 0.589170 0.795800 18.126872 -8.524947 1.959525 -0.108890 6.232975 -27.527435 -25.158474 5.475853 66.867884 -2.092411 -10.079000 0.859369 0.081120 -0.204830 0.399190 -2.334970 -3.710025 -9.545816 2.214026 6.049840 64.573172 4.050430 6.488693 12.995065 0.356106 4.458258 -14.427882 2.367188 1.121353 53.380135 7.147350 5.107480 -15.568690 -5.857639 -29.371969 2.697513 5.133529 -25.269928 -6.056658 17.626351 -5.206597 -2.509050 -3.766535 2.994289 0.623290 -0.224840 0.500880 0.112010 4.168547 28.689055 12.317970 14.039117 0.746343 -12.678108 18.749608 44.448716 4.654666 2.049758 -1.612609 0.225820 -0.087000 -0.328420 -0.099460 
-0.320760 14.115500 -3.907580 -36.898292 0.481384 30.539659 -15.928913 10.455668 7.307768 4.169975 -22.762677 -57.236284 -32.359405 26.542830 55.166621 2.174367 13.609156 -0.041130 0.847950 0.647460 0.834390 18.168732 -8.484601 2.189705 -0.038314 7.167250 -29.162223 -28.359952 8.135053 70.064859 -2.353325 -11.029371 0.573689 0.106470 -0.238080 0.454370 -2.452067 -3.530805 -9.551778 2.977460 5.560162 62.667177 3.016602 6.046240 14.115351 0.461947 4.040510 -14.421368 1.668210 1.748222 52.741691 7.177040 5.216000 -14.877660 -5.576788 -28.623800 3.064300 3.327011 -24.688588 -5.913584 18.591837 -5.999196 -2.747879 -3.733433 3.133909 0.593340 -0.227560 0.515740 0.127920 3.515734 27.978836 12.374254 15.674781 0.649024 -12.138568 18.318521 43.032328 4.096289 2.090350 -1.653433 0.285500 -0.166840 -0.368570 -0.086620 
-0.339180 14.021560 -3.890940 -37.697614 0.395991 29.816940 -15.895647 10.455278 7.148654 2.783641 -22.513693 -55.083752 -30.821522 26.426148 56.246177 2.157248 13.649204 -0.071684 0.868650 0.671770 0.843870 18.196052 -8.464371 2.336357 0.244107 7.675101 -30.013930 -31.027999 10.327554 71.902558 -2.547056 -11.727051 0.394898 0.127420 -0.258180 0.444890 -2.529277 -3.433733 -9.556278 3.785565 4.846164 61.347418 2.251745 5.535726 14.886888 0.666910 3.866815 -14.505061 1.272617 1.946086 53.242220 7.134320 5.199240 -14.937590 -5.130377 -28.042632 3.287450 1.391756 -24.650591 -5.563710 19.319533 -6.210087 -2.909414 -3.707473 3.161288 0.600680 -0.236750 0.516720 0.124910 2.600699 27.204663 12.506780 16.689076 0.540093 -11.294991 15.870360 40.889854 3.183691 2.106417 -1.599521 0.284410 -0.172550 -0.374560 -0.096160 
-0.343290 13.955070 -3.863880 -39.769944 0.359072 28.270739 -15.796311 10.431500 6.931742 2.073846 -21.288094 -52.545580 -28.502850 26.339598 58.224468 2.125531 13.825736 -0.127416 0.935830 0.758520 0.865130 18.275044 -8.540079 2.507556 1.888478 8.305732 -29.466639 -31.794420 11.098582 71.816083 -2.632924 -11.847690 0.373591 0.195030 -0.243680 0.445160 -2.773793 -3.028664 -9.501650 6.203644 3.245667 61.448553 0.630115 5.389700 16.424047 0.829401 3.208629 -13.946477 0.118231 2.590888 51.923519 7.529670 5.216340 -16.855320 -4.096267 -27.107309 3.176291 0.080456 -25.159665 -5.267292 20.029377 -5.937997 -3.117394 -3.695846 3.163639 0.618450 -0.241520 0.535170 0.162370 0.997653 26.261019 12.133035 17.609744 0.769672 -11.464732 13.544421 41.205308 2.531127 2.056616 -1.590091 0.277660 -0.118530 -0.394780 -0.087440 
-0.309680 13.941970 -3.816470 -40.073157 0.534664 25.996931 -15.710228 10.628360 6.747247 0.047148 -20.823041 -48.411359 -26.718544 25.680550 58.727131 2.057595 13.650933 -0.089957 0.981580 0.816470 0.915280 18.293663 -8.852485 2.399822 0.935019 7.897401 -27.644702 -30.365498 10.109327 72.772182 -2.647453 -11.745572 0.399861 0.231360 -0.281990 0.424240 -2.922131 -2.763556 -9.358235 7.387651 2.023706 63.433923 -1.071498 4.778305 17.038762 1.319877 3.387881 -13.987876 0.420111 2.398762 52.405186 7.211060 5.439640 -18.977020 -4.992004 -27.995049 3.047506 1.677526 -24.398691 -6.186610 20.358117 -5.618570 -3.186022 -3.681998 3.116905 0.663630 -0.277480 0.577780 0.165850 0.871633 26.502874 12.125654 17.461531 0.632394 -12.020472 11.310380 41.755200 1.960320 2.012879 -1.571102 0.268690 -0.078430 -0.418920 -0.105610 
-0.279040 13.916010 -3.795550 -39.740742 0.974960 24.935359 -15.637844 10.643517 6.686914 -1.552207 -21.066720 -46.193687 -26.336180 25.708497 59.181788 2.040301 13.691064 -0.115337 1.005740 0.861070 0.922230 18.332805 -9.089152 2.284740 -0.898758 7.711567 -26.703792 -28.598397 8.814847 76.649971 -2.740724 -12.082239 0.304927 0.266160 -0.289920 0.421030 -3.083123 -2.433454 -9.288760 8.712550 0.569301 64.037858 -2.814567 3.746516 17.444546 1.715581 3.444007 -13.735176 0.553817 1.956258 52.794915 7.296730 4.873260 -20.797180 -5.162782 -28.282010 2.941749 2.532311 -24.044140 -6.607127 20.394939 -5.811243 -3.272543 -3.684860 3.069955 0.691260 -0.291720 0.602690 0.161930 0.352941 26.156324 11.654643 17.616068 1.841742 -12.387944 9.063639 42.718555 1.391874 1.975694 -1.534588 0.264170 -0.039560 -0.409300 -0.105830 
-0.247130 13.902930 -3.798290 -40.271482 0.758349 24.673659 -15.610220 10.542216 6.722148 -1.974312 -21.274889 -47.031016 -24.192303 25.679727 61.847263 2.038036 13.976034 -0.229150 1.026470 0.914170 0.926160 18.370448 -9.131771 2.266718 -1.408965 7.993066 -26.208017 -27.026994 7.616559 78.473709 -2.748356 -12.147444 0.283492 0.302390 -0.295180 0.413260 -3.178923 -2.203315 -9.281390 9.600616 -0.153273 64.011426 -3.778840 3.520203 18.041272 2.007945 2.978962 -13.254001 -0.185692 1.977533 51.755704 6.571540 4.498240 -22.536690 -4.257141 -27.756729 2.890285 1.935350 -24.405988 -6.486092 20.994070 -5.511503 -3.401115 -3.700874 3.052687 0.687770 -0.289530 0.605450 0.142820 -1.131168 25.860222 10.979579 17.900862 3.553586 -12.948287 4.832013 44.049057 0.214778 1.919124 -1.514797 0.269940 -0.012480 -0.391980 -0.102490 
-0.213160 13.945460 -3.824260 -40.649671 -0.175799 24.882063 -15.651306 10.526981 6.783529 -1.647626 -21.084164 -49.202005 -21.699397 25.265711 64.151778 2.015999 14.156483 -0.301890 1.006420 0.884980 0.927330 18.347247 -9.012564 2.319138 -1.231209 8.628186 -25.891990 -25.267736 6.467220 78.659135 -2.684870 -11.968570 0.320822 0.287360 -0.299220 0.425880 -3.093283 -2.321734 -9.323110 8.569422 0.922107 64.968548 -3.484429 4.390246 16.931515 2.165308 2.975689 -12.957968 -0.106218 1.710396 51.003990 5.460240 4.414770 -23.091500 -5.659362 -28.005389 2.520895 3.317967 -24.813183 -6.770450 20.759390 -5.216416 -3.325059 -3.733094 3.025217 0.692030 -0.280080 0.600190 0.118890 -0.130285 26.807773 10.565513 15.564857 4.147404 -13.990203 3.289418 46.316172 -0.111297 1.880764 -1.546597 0.266360 -0.023800 -0.370640 -0.114380 
-0.163280 14.001290 -3.846510 -41.321811 -0.973883 25.539486 -15.653095 10.488782 6.807345 -0.728814 -20.319475 -51.181812 -20.927283 24.866469 64.146176 1.953887 14.054059 -0.299900 1.007420 0.865020 0.960070 18.347247 -8.949844 2.392339 -1.426728 9.339541 -25.661264 -21.492772 3.646091 77.896882 -2.542870 -11.470176 0.419678 0.272530 -0.336290 0.448580 -3.094030 -2.255269 -9.358497 8.329417 1.412786 65.475195 -3.875926 5.134686 16.118512 2.511335 2.920031 -13.097043 -0.131082 1.623552 51.434480 3.991470 4.481600 -23.462310 -6.366316 -28.625521 2.712938 4.331262 -24.398149 -7.118288 20.788569 -5.123612 -3.290297 -3.732883 3.026446 0.705840 -0.291310 0.620640 0.099450 -0.102182 28.161121 10.025170 14.135324 6.163097 -15.169812 -0.767151 47.794458 -1.458108 1.853544 -1.580573 0.277310 -0.055760 -0.373610 -0.132600 
